<svg width="38" height="35" viewBox="0 0 38 35" fill="none" xmlns="http://www.w3.org/2000/svg">
<path d="M23.2483 1.03453C22.1238 1.34754 21.092 2.30976 20.7442 3.34153C20.4776 4.15304 20.5587 5.40508 20.9297 6.14704C22.0195 8.30331 25.022 8.77865 26.703 7.0397C27.4334 6.27459 27.7 5.62534 27.7 4.53561C27.7 3.51542 27.4913 2.91259 26.8422 2.13586C26.1002 1.2432 24.3844 0.709923 23.2483 1.03453Z" fill="#B4A481"/>
<path d="M0.804257 3.43429C0.665142 3.48066 0.44488 3.67774 0.294165 3.86323C-0.0420315 4.29217 0.0275293 4.99936 0.46806 5.37031L0.769483 5.63693H9.60334H18.4372V4.47766V3.31836L9.74243 3.32995C4.96614 3.32995 0.931785 3.37633 0.804257 3.43429Z" fill="black"/>
<path d="M29.8563 4.47765V5.63693H33.1487C36.4064 5.63693 36.4527 5.63693 36.7542 5.3703C36.9512 5.20801 37.0787 4.95299 37.1251 4.63994C37.1831 4.22261 37.1367 4.10668 36.8353 3.77048L36.4875 3.37632L33.1719 3.34154L29.8563 3.30676V4.47765Z" fill="black"/>
<path d="M12.1191 14.2041C11.1105 14.5172 10.2062 15.317 9.76567 16.2909C9.41787 17.0328 9.41787 18.3544 9.76567 19.0964C10.8322 21.4381 13.8116 22.0178 15.5969 20.244C16.3737 19.4557 16.6751 18.621 16.6171 17.4617C16.5476 16.4184 16.2693 15.804 15.5274 15.0736C14.6811 14.2621 13.1971 13.8795 12.1191 14.2041Z" fill="#B4A481"/>
<path d="M0.653547 16.6966C0.108674 16.998 -0.0768141 17.6704 0.224602 18.2616C0.514432 18.8181 0.746288 18.8529 4.17781 18.8529H7.36591V17.6936V16.5343H4.15463C1.69691 16.5459 0.862215 16.5807 0.653547 16.6966Z" fill="black"/>
<path d="M18.785 17.6936V18.8529H27.5029C34.0182 18.8529 36.302 18.8181 36.5223 18.7138C36.8585 18.5631 37.1599 18.0761 37.1599 17.6936C37.1599 17.311 36.8585 16.8241 36.5223 16.6734C36.302 16.5691 34.0182 16.5343 27.5029 16.5343H18.785V17.6936Z" fill="black"/>
<path d="M23.5264 27.3275C22.7729 27.4666 22.2628 27.7216 21.718 28.2317C20.9992 28.8925 20.6514 29.6229 20.605 30.643C20.547 31.7328 20.7905 32.4631 21.4629 33.2167C22.599 34.4803 24.2104 34.8049 25.7175 34.0629C26.5406 33.6572 27.0275 33.1588 27.4449 32.3009C27.8043 31.5473 27.8043 30.1445 27.4333 29.3794C26.7145 27.9071 25.0567 27.026 23.5264 27.3275Z" fill="#B4A481"/>
<path d="M0.491272 29.9822C0.131889 30.2605 -0.030413 30.9213 0.166669 31.327C0.23623 31.4777 0.456492 31.7096 0.665167 31.8371C1.03614 32.0574 1.25641 32.069 9.7425 32.069H18.4372V30.9096V29.7504H9.61496C0.897029 29.7504 0.781095 29.7504 0.491272 29.9822Z" fill="black"/>
<path d="M29.8563 30.9096V32.0805L33.1719 32.0458L36.4875 32.011L36.8353 31.6168C37.1367 31.2806 37.1831 31.1647 37.1251 30.7474C37.0787 30.4344 36.9512 30.1793 36.7542 30.017C36.4527 29.7504 36.4064 29.7504 33.1487 29.7504H29.8563V30.9096Z" fill="black"/>
</svg>
