<svg width="40" height="37" viewBox="0 0 40 37" fill="none" xmlns="http://www.w3.org/2000/svg">
<path d="M17.7361 0.575206C14.2066 1.21579 11.8327 2.27087 9.42111 4.28054C5.84134 7.24479 3.54278 12.0555 3.54278 16.5898C3.54278 17.2681 3.51766 17.3058 3.15341 17.4565C2.50026 17.7328 1.55823 18.7628 1.13117 19.6671C0.666432 20.6594 0.528269 22.0536 0.779482 23.0961C1.11861 24.5029 2.4249 25.9473 3.88191 26.5126C4.48481 26.7386 4.87419 26.7889 6.1428 26.8014C7.46163 26.814 7.71285 26.7763 7.90124 26.5879C8.10222 26.3869 8.12734 25.9976 8.16504 22.0662C8.19016 19.7048 8.16504 17.6449 8.12734 17.4942C7.98917 16.9164 7.75055 16.8285 6.41913 16.8285H5.17564L5.251 15.9115C5.57757 11.6912 7.48675 7.97331 10.6395 5.43613C12.3854 4.0419 14.1564 3.1501 16.4675 2.54719C17.51 2.27087 17.9496 2.22062 19.7458 2.20807C21.0521 2.20807 22.0946 2.25831 22.5719 2.37135C27.8473 3.53947 31.7913 6.89311 33.6125 11.7414C33.9894 12.7212 34.4039 14.6681 34.4918 15.9115L34.5671 16.8285H33.3237C31.9923 16.8285 31.7536 16.9164 31.6154 17.4942C31.5778 17.6449 31.5526 19.7048 31.5778 22.0662C31.6154 25.9976 31.6405 26.3869 31.8415 26.5879C32.0174 26.7638 32.3188 26.8266 33.3111 26.8517L34.5671 26.902V27.5677C34.5671 30.3812 32.8715 32.5542 30.3091 33.0315C29.9448 33.0942 28.1989 33.157 26.453 33.157H23.2753L23.1371 32.6672C22.9738 32.0391 22.4086 31.5619 21.7178 31.4614C21.4163 31.4111 20.1854 31.3986 18.9796 31.4237C15.9148 31.474 15.7264 31.6247 15.7264 34.0489V35.4431L16.2163 35.9329L16.7062 36.4228H19.3564C21.4414 36.4228 22.0946 36.3851 22.3709 36.2469C22.7728 36.0334 23.0618 35.644 23.1873 35.129L23.2627 34.7899H26.7546C30.6106 34.7899 31.2386 34.702 32.5826 34.0237C33.5749 33.5213 34.8811 32.2276 35.4212 31.1976C35.9488 30.1677 36.2 29.0624 36.2 27.6179V26.4121L36.828 26.0102C37.5942 25.5077 38.2473 24.7667 38.6869 23.8623C38.9884 23.2468 39.0261 23.0333 39.0261 21.8527C39.0261 20.6343 39.001 20.471 38.6242 19.6797C38.1845 18.7628 37.2425 17.7328 36.5894 17.4565C36.2251 17.3058 36.2 17.2681 36.2 16.5898C36.2 11.2516 33.1352 5.83803 28.4753 2.91145C27.2695 2.15782 25.3854 1.35395 23.9159 0.977141C22.597 0.638006 22.2202 0.587764 20.2482 0.562642C19.0424 0.537521 17.9119 0.550085 17.7361 0.575206ZM6.43168 21.7898V25.1184H5.65294C3.42974 25.1184 1.83456 23.0333 2.4249 20.9231C2.6133 20.2198 3.12829 19.5038 3.73119 19.0893C4.37177 18.6497 4.91187 18.4864 5.77854 18.4738L6.43168 18.4613V21.7898ZM34.969 18.5869C35.7478 18.8005 36.5894 19.4662 36.9787 20.1695C38.2348 22.4304 36.6647 25.1184 34.1024 25.1184H33.3111V21.7898V18.4613H33.914C34.2406 18.4613 34.7178 18.5241 34.969 18.5869ZM21.5043 33.9735V34.7899H19.4318H17.3593V33.9735V33.157H19.4318H21.5043V33.9735Z" fill="black"/>
<path d="M18.5149 8.92791C16.6685 9.20424 14.6588 10.2468 13.3023 11.641C12.4356 12.5202 12.222 12.8343 11.6317 13.9898C10.4008 16.3763 10.3757 19.5667 11.5689 21.9657L11.9332 22.7068L11.4936 24.9928C11.0163 27.4797 11.0288 27.7561 11.6317 28.0198C11.8829 28.1454 12.2095 28.045 13.9554 27.2913L15.9776 26.4247L17.0704 26.8015C18.0752 27.1406 18.3264 27.1783 19.8086 27.1783C21.1777 27.1909 21.5922 27.1406 22.3835 26.9019C26.4028 25.6459 29.0405 22.1667 29.0405 18.1347C29.0405 16.1879 28.5004 14.3541 27.483 12.8468C26.4782 11.3772 24.5565 9.90765 22.911 9.36758C21.3033 8.84004 20.0598 8.7144 18.5149 8.92791ZM22.3458 10.925C24.569 11.7038 26.3024 13.5376 27.1062 15.9492C27.4705 17.0294 27.4328 19.1271 27.0434 20.3328C26.4405 22.1541 25.0714 23.787 23.3883 24.6662C21.3159 25.759 19.2057 25.8595 16.9699 24.9802L15.9776 24.5783L14.596 25.1812C13.8424 25.5203 13.1892 25.759 13.1515 25.7213C13.1013 25.6836 13.2144 24.9425 13.3776 24.0633L13.6791 22.4932L13.1892 21.4884C11.0414 17.0797 13.2771 12.0555 17.9873 10.7366C19.0047 10.4603 21.3159 10.5482 22.3458 10.925Z" fill="#B4A481"/>
<path d="M15.0482 15.8487C14.7718 16.2381 14.797 16.6526 15.0985 16.954C15.3371 17.1927 15.513 17.2052 19.8715 17.2052C24.2299 17.2052 24.4057 17.1927 24.6444 16.954C24.9459 16.6526 24.971 16.2381 24.6947 15.8487L24.5062 15.5724H19.8715H15.2366L15.0482 15.8487Z" fill="#B4A481"/>
<path d="M15.1613 19.1395C14.9854 19.3154 14.8473 19.5666 14.8473 19.7174C14.8473 19.8555 14.9854 20.1193 15.1613 20.2951L15.4753 20.6091L17.8618 20.5715C20.4995 20.5338 20.6627 20.4835 20.6627 19.7174C20.6627 18.9511 20.4995 18.9009 17.8618 18.8632L15.4753 18.8256L15.1613 19.1395Z" fill="#B4A481"/>
</svg>
