<svg width="40" height="40" viewBox="0 0 40 40" fill="none" xmlns="http://www.w3.org/2000/svg">
<mask id="mask0_8_147" style="mask-type:luminance" maskUnits="userSpaceOnUse" x="0" y="0" width="40" height="40">
<path d="M39.5082 0.390015H0.16394V39.7343H39.5082V0.390015Z" fill="white"/>
</mask>
<g mask="url(#mask0_8_147)">
<path d="M0.779082 3.77379C-0.144991 4.26662 -0.0833862 3.35487 -0.0587441 17.4501L-0.0217811 30.0668L0.434096 30.4857L0.902295 30.9046H6.69319H12.4841V31.8287V32.7528H12.1144C11.3258 32.7528 10.4388 33.3812 10.1554 34.1451C9.97056 34.6133 9.99522 35.8454 10.18 36.0918C10.5496 36.5723 10.6359 36.5723 19.2606 36.5723H27.6635L28.0209 36.215C28.3289 35.907 28.3782 35.7591 28.3782 35.2047C28.3782 33.9356 27.5896 32.9376 26.4437 32.7774L25.8523 32.6912V31.8287V30.9663L27.6881 30.9293C28.7971 30.917 29.5979 30.8431 29.6965 30.7568C29.8936 30.5966 29.906 30.1408 29.7088 29.9436C29.5979 29.8327 26.259 29.7958 15.4165 29.7958C1.56763 29.7958 1.27193 29.7958 1.14871 29.5617C1.08711 29.4261 1.0255 28.5636 1.0255 27.6519V25.9762H2.81205C4.43843 25.9762 4.62324 25.9516 4.84502 25.7298C5.15304 25.4218 5.15304 25.2124 4.86966 24.9536C4.67252 24.7811 4.33986 24.7441 2.8367 24.7441H1.0255V14.912C1.0255 7.43309 1.06247 5.04285 1.17336 4.93196C1.28424 4.82107 2.26993 4.78411 4.84502 4.78411C7.82669 4.78411 8.40578 4.75946 8.63988 4.58697C8.97253 4.35287 8.99719 3.84771 8.67686 3.67522C8.52899 3.60129 7.07509 3.552 4.82037 3.552C1.5553 3.552 1.16104 3.57664 0.779082 3.77379ZM24.6818 31.8287V32.7528H19.199H13.7161V31.8287V30.9046H19.199H24.6818V31.8287ZM26.567 34.0095C26.9735 34.219 27.1337 34.4901 27.146 34.9336V35.3402H19.1374H11.1287V35.0568C11.1287 34.6502 11.3998 34.1943 11.7448 34.0219C12.176 33.8001 26.1727 33.7878 26.567 34.0095Z" fill="black"/>
<path d="M10.3648 3.68754C10.2293 3.76146 10.143 3.9586 10.143 4.18038C10.143 4.45144 10.217 4.57465 10.4634 4.66089C10.6359 4.73482 12.521 4.78411 14.899 4.78411H19.0142V14.7641V24.7441H12.8167C6.9642 24.7441 6.59457 24.7564 6.40978 24.9659C6.1264 25.2739 6.15104 25.5574 6.47138 25.7791C6.71778 25.9516 8.44276 25.9762 22.4887 25.9762H38.235V27.6519C38.235 28.5636 38.1733 29.4261 38.1117 29.5617C37.9885 29.7835 37.816 29.7958 34.6865 29.7958C31.2243 29.7958 31.0887 29.8204 31.0887 30.3502C31.0887 30.8923 31.2119 30.9046 34.859 30.9046C38.1856 30.9046 38.3335 30.8923 38.6538 30.6459C39.3808 30.0791 39.3438 30.8061 39.3438 17.2653C39.3438 3.39183 39.3931 4.2543 38.4814 3.77379C38.0748 3.56432 37.4095 3.552 24.3122 3.552C15.207 3.56432 10.5003 3.60129 10.3648 3.68754ZM38.0871 4.93196C38.198 5.04285 38.235 7.43309 38.235 14.912V24.7441H29.2406H20.2462V14.7641V4.78411H29.0927C35.8077 4.78411 37.9762 4.82107 38.0871 4.93196Z" fill="black"/>
<path d="M23.3142 6.86633C22.9693 7.22364 22.9569 7.27295 22.9569 8.41879C22.9569 9.56463 22.9693 9.61394 23.3142 9.97125L23.6715 10.3286H29.3022C35.4997 10.3286 35.4997 10.3286 35.7584 9.57695C35.931 9.07177 35.931 7.76581 35.7584 7.26063C35.4997 6.50903 35.4997 6.50903 29.3022 6.50903H23.6715L23.3142 6.86633ZM34.6618 8.35722V9.09643H29.3638H24.0658V8.35722V7.61794H29.3638H34.6618V8.35722Z" fill="black"/>
<path d="M23.4251 12.4354C23.1171 12.6079 23.1417 13.2363 23.4497 13.4088C24.0781 13.7415 24.6202 12.9652 24.0658 12.5217C23.7578 12.2629 23.7085 12.2629 23.4251 12.4354Z" fill="black"/>
<path d="M25.6921 12.4971C25.3595 12.7189 25.3472 13.0515 25.6428 13.3226C25.8523 13.5074 26.3574 13.5321 30.3988 13.5321C33.2819 13.5321 35.0068 13.4827 35.167 13.4088C35.3148 13.3226 35.4011 13.1501 35.4011 12.916C35.4011 12.6819 35.3148 12.5094 35.167 12.4231C35.0068 12.3492 33.2942 12.2999 30.4481 12.2999C26.5915 12.2999 25.9262 12.3246 25.6921 12.4971Z" fill="black"/>
<path d="M23.4251 15.2693C23.0923 15.4541 23.1293 16.0948 23.4866 16.2304C24.0534 16.4522 24.5216 15.8238 24.115 15.3679C23.8809 15.1091 23.7331 15.0845 23.4251 15.2693Z" fill="black"/>
<path d="M25.6306 15.3556C25.3472 15.6636 25.3719 15.947 25.6922 16.1688C25.9263 16.3413 26.5916 16.3659 30.4481 16.3659C33.2943 16.3659 35.0069 16.3166 35.1671 16.2427C35.3149 16.1565 35.4012 15.984 35.4012 15.7499C35.4012 15.5158 35.3149 15.3433 35.1671 15.257C35.0069 15.1831 33.282 15.1338 30.3742 15.1338C26.1234 15.1338 25.8154 15.1461 25.6306 15.3556Z" fill="black"/>
<path d="M23.4251 18.1031C23.0924 18.2879 23.1416 18.8793 23.499 19.0519C24.078 19.3106 24.5709 18.6206 24.115 18.1647C23.8933 17.9429 23.7207 17.9183 23.4251 18.1031Z" fill="black"/>
<path d="M25.606 18.1646C25.3349 18.4481 25.4212 18.8547 25.7908 19.0395C26.1727 19.2366 34.588 19.2736 35.0808 19.0764C35.4874 18.9286 35.5367 18.2879 35.1671 18.0907C35.0069 18.0168 33.2696 17.9675 30.3619 17.9675C26.3206 17.9675 25.7908 17.9922 25.606 18.1646Z" fill="black"/>
<path d="M23.4251 20.8137C23.0801 21.0109 23.1417 21.6392 23.5113 21.8117C23.77 21.9226 23.8563 21.9103 24.0658 21.7255C24.3861 21.4298 24.3738 21.1094 24.0411 20.8753C23.7208 20.6412 23.7085 20.6412 23.4251 20.8137Z" fill="black"/>
<path d="M25.6921 20.8753C25.5443 20.9739 25.4211 21.1711 25.4211 21.2943C25.4211 21.4175 25.5443 21.6146 25.6921 21.7132C25.9262 21.8857 26.5915 21.9103 30.448 21.9103C33.2942 21.9103 35.0068 21.861 35.167 21.7871C35.3148 21.7008 35.401 21.5284 35.401 21.2943C35.401 21.0602 35.3148 20.8877 35.167 20.8014C35.0068 20.7275 33.2942 20.6782 30.448 20.6782C26.5915 20.6782 25.9262 20.7029 25.6921 20.8753Z" fill="black"/>
<path d="M5.85542 6.34881C5.41186 6.74306 4.36457 8.57893 4.04422 9.51533C3.66228 10.6612 3.63763 11.9919 3.9703 13.2856C4.16744 14.0371 4.19208 14.3082 4.09351 14.8134C4.01959 15.1583 3.9703 16.0208 3.9703 16.7355C3.9703 18.7807 4.45082 20.1853 5.54739 21.3804C5.86774 21.7378 6.24969 22.2059 6.38522 22.4277C6.76716 23.0438 7.58034 23.4134 8.4305 23.3518C8.81247 23.3149 9.32991 23.1793 9.601 23.0438L10.0815 22.7974L10.562 23.0438C10.8331 23.1793 11.3629 23.3149 11.7325 23.3518C12.5827 23.4134 13.3959 23.0438 13.7778 22.4277C13.9133 22.2059 14.2953 21.7378 14.6156 21.3804C15.7122 20.1853 16.1927 18.7807 16.1927 16.7355C16.1927 16.0208 16.1434 15.1583 16.0695 14.8257C15.971 14.3205 15.9956 14.0371 16.2051 13.2239C16.5254 11.9672 16.4638 10.3778 16.0572 9.28123C15.7245 8.41874 14.6649 6.66916 14.283 6.36114C13.9873 6.11472 13.3342 6.07775 12.9646 6.26257C12.4964 6.52131 12.0405 7.90129 11.8927 9.55231L11.8064 10.4764H10.0815H8.3566L8.27031 9.55231C8.1225 7.90129 7.66657 6.52131 7.19837 6.26257C6.8288 6.06543 6.12648 6.11472 5.85542 6.34881ZM6.86572 8.17231C6.9766 8.61585 7.09982 9.37979 7.1368 9.87264L7.2107 10.7597L6.58237 11.0431C6.23736 11.2033 5.7322 11.536 5.46114 11.7947L4.9683 12.2629L4.89437 11.9672C4.78349 11.5483 4.91902 10.5133 5.17776 9.77408C5.38721 9.13336 6.42218 7.37146 6.57005 7.37146C6.61929 7.37146 6.75483 7.72877 6.86572 8.17231ZM14.246 8.28319C14.554 8.78837 14.8867 9.44136 14.9853 9.7371C15.2194 10.4147 15.3672 11.5852 15.2687 11.9672C15.1948 12.2629 15.1948 12.2629 14.7019 11.7947C14.4308 11.536 13.9257 11.2033 13.5807 11.0431L12.9523 10.7597L13.0262 9.87264C13.1001 8.88693 13.4451 7.37146 13.593 7.37146C13.6423 7.37146 13.938 7.77808 14.246 8.28319ZM12.9769 12.0042C13.285 12.152 13.6916 12.4231 13.8887 12.6202C14.7019 13.4334 15.1578 15.2569 15.0469 17.2037C14.9729 18.2509 14.6034 19.6309 14.3938 19.6309C14.3323 19.6309 14.2337 19.3968 14.1844 19.101C14.0489 18.2633 13.556 17.3391 12.94 16.6985C12.6196 16.3781 12.3609 16.0454 12.3609 15.9469C12.3609 15.6635 11.5354 15.0351 10.9809 14.8749C10.2663 14.6901 9.19444 14.7887 8.5907 15.0844C8.28264 15.2446 7.99929 15.528 7.80211 15.8853C7.62965 16.1933 7.30932 16.6368 7.08749 16.8709C6.5947 17.3638 6.10184 18.3618 5.97862 19.101C5.92934 19.3968 5.83077 19.6309 5.76917 19.6309C5.55971 19.6309 5.19008 18.2509 5.11615 17.2037C5.01759 15.454 5.44882 13.5443 6.10184 12.7927C6.92736 11.8563 7.62965 11.6715 10.2663 11.7084C12.1514 11.7454 12.4964 11.7824 12.9769 12.0042ZM10.6606 15.9962C11.4491 16.2179 11.597 16.8586 11.0056 17.4378C10.3033 18.1277 10.0938 18.177 9.53942 17.8073C8.83713 17.3391 8.5907 16.9326 8.77549 16.5383C8.91103 16.2179 9.51477 15.8853 9.95831 15.873C10.0938 15.873 10.4142 15.9345 10.6606 15.9962ZM12.9154 18.7807C13.1987 19.6679 13.211 21.1094 12.94 21.6269C12.6813 22.1074 12.1022 22.3292 11.5108 22.1566C10.7222 21.9349 10.6359 21.7624 10.6359 20.3825V19.138L11.2027 18.7807C11.5108 18.5836 11.8804 18.2633 12.0282 18.0784C12.2623 17.7581 12.2993 17.7458 12.4964 17.9182C12.6074 18.0168 12.7921 18.4111 12.9154 18.7807ZM8.18408 18.1646C8.34427 18.3372 8.71391 18.6452 9.00959 18.8547L9.52709 19.2119V20.4194C9.52709 21.7624 9.4408 21.9349 8.65228 22.1566C8.06087 22.3292 7.48178 22.1074 7.22303 21.6269C6.84106 20.8876 7.07516 18.6328 7.58034 17.9922C7.76519 17.7827 7.83909 17.8073 8.18408 18.1646Z" fill="#B4A481"/>
<path d="M7.33398 13.5565C7.01366 13.8768 7.35864 14.5176 7.83916 14.5176C8.17182 14.5176 8.46756 13.9755 8.29503 13.6674C8.14716 13.3717 7.58041 13.3101 7.33398 13.5565Z" fill="#B4A481"/>
<path d="M11.8681 13.6674C11.6955 13.9755 12.0035 14.5176 12.3485 14.5176C12.6073 14.5176 12.9769 14.1479 12.9769 13.8892C12.9769 13.3841 12.1022 13.2116 11.8681 13.6674Z" fill="#B4A481"/>
<path d="M19.0388 27.4794C18.817 27.7012 18.854 27.9969 19.125 28.2434C19.5809 28.6499 20.2093 28.1817 19.9875 27.6027C19.8767 27.2947 19.2976 27.2207 19.0388 27.4794Z" fill="black"/>
</g>
</svg>
