<svg width="40" height="40" viewBox="0 0 40 40" fill="none" xmlns="http://www.w3.org/2000/svg">
<path d="M28.8246 1.96518C27.313 2.37744 26.0762 3.36228 25.412 4.69067C25.1944 5.13728 24.9768 5.68696 24.9425 5.92745L24.8738 6.36261L21.3582 6.39696C18.1975 6.43132 17.8081 6.45422 17.3959 6.64893C16.766 6.94664 2.45148 21.2612 2.17664 21.8681C1.86745 22.5438 1.82165 23.4256 2.05068 24.1356C2.2339 24.7196 2.566 25.0746 7.29554 29.8156C12.9412 35.4841 12.8496 35.4039 14.2352 35.3238C14.6589 35.3009 15.1972 35.175 15.4491 35.0604C15.701 34.9344 16.537 34.2245 17.3043 33.4801L18.7014 32.1173L18.7357 34.2359L18.7701 36.343L19.1136 36.9041C19.503 37.5225 20.3161 38.1409 21.0146 38.3241C21.3123 38.4043 23.9576 38.4386 28.8704 38.4158C35.9017 38.3814 36.314 38.3699 36.6919 38.1638C37.4248 37.763 37.7913 37.4195 38.1348 36.8125L38.4669 36.2056L38.5012 25.9106C38.5241 16.7836 38.5127 15.5354 38.3524 14.9742C38.1806 14.3902 38.0432 14.207 36.7949 13.0045L35.4322 11.6647V8.97359C35.4322 6.66034 35.3978 6.17938 35.2146 5.5839C34.9054 4.59906 34.5161 3.98067 33.7259 3.24776C32.3517 1.97663 30.5424 1.50711 28.8246 1.96518ZM31.4585 3.57986C32.3631 3.9005 33.1877 4.67922 33.6229 5.65261C33.8519 6.13358 33.8862 6.44277 33.9206 8.20631C33.9778 10.5424 34.184 10.4967 32.2258 8.59568C30.027 6.45422 30.05 6.45422 27.9543 6.39696C26.4083 6.35116 26.374 6.3397 26.4541 6.09923C26.6259 5.53809 27.084 4.80519 27.4963 4.41583C28.5727 3.38519 30.0385 3.07599 31.4585 3.57986ZM24.7822 8.72165C24.7822 9.21405 24.7364 9.58054 24.6677 9.58054C24.4501 9.58054 23.6027 10.4394 23.4424 10.8058C23.0645 11.722 23.4195 13.0275 24.2096 13.5657C25.1944 14.2299 26.3052 14.1268 27.1298 13.3023C28.1947 12.2373 28.0001 10.5081 26.729 9.78663L26.2709 9.52329L26.2938 8.72165L26.3281 7.92001L27.3359 7.93149C28.481 7.94296 28.8132 8.10329 29.1567 8.79037C29.3399 9.14539 29.3628 9.62631 29.3628 13.8863C29.3628 16.4744 29.3285 18.7762 29.2942 18.9823C29.2368 19.303 28.023 20.5741 22.0452 26.5519C15.4033 33.1938 14.8422 33.732 14.4184 33.8007C14.1551 33.8351 13.8001 33.8122 13.6168 33.7435C13.4107 33.6748 11.2349 31.5791 8.42924 28.7849C3.26455 23.6317 3.2531 23.6088 3.48213 22.7499C3.57374 22.4293 5.03955 20.8948 10.731 15.2147C15.5292 10.4165 17.9685 8.05746 18.1975 7.98873C18.3922 7.93149 19.9496 7.87424 21.6673 7.87424L24.7822 7.86277V8.72165ZM34.4932 12.89C36.3598 14.6879 36.8293 15.2033 36.9209 15.5468C37.0011 15.8217 37.024 19.5205 37.0125 25.922L36.9782 35.862L36.7262 36.2171C36.2338 36.9041 36.3942 36.8927 28.504 36.8927H21.2894L20.9001 36.6179C20.2588 36.1598 20.2015 35.8735 20.2015 33.0908V30.6057L25.286 25.4983C28.0803 22.6927 30.4507 20.242 30.5424 20.0588C30.8974 19.3488 30.9661 18.3754 30.9661 13.955V9.54618L31.573 10.1073C31.8936 10.4165 33.2106 11.6647 34.4932 12.89ZM26.0419 11.1838C26.5114 11.6533 26.2136 12.4434 25.5609 12.4434C25.183 12.4434 24.7822 12.0884 24.7822 11.7335C24.7822 11.4013 25.2174 10.9547 25.5494 10.9547C25.6983 10.9547 25.9159 11.0578 26.0419 11.1838Z" fill="black"/>
<path d="M12.1953 17.717C10.621 19.8772 10.0207 22.7324 10.4218 26.1422L10.462 26.428L11.1277 26.5045C14.2357 26.8703 16.9307 26.32 19.0487 24.8866C19.6184 24.5056 20.691 23.4388 21.0867 22.874C21.9395 21.6459 22.4735 20.2634 22.7466 18.6015C22.8733 17.8181 22.9042 15.9262 22.7997 14.9776L22.7277 14.3147L22.4425 14.2711C21.3051 14.1231 19.8777 14.0875 18.9178 14.1805C17.215 14.3488 15.6547 14.8682 14.3475 15.6975C13.7474 16.0859 12.6177 17.141 12.1953 17.717ZM14.7826 16.7434C16.0083 16.1533 17.3824 16.1886 18.6004 16.8396C19.0671 17.0899 19.8955 17.9441 20.155 18.4444C20.6929 19.4947 20.7847 20.6298 20.4127 21.6706C20.1454 22.4189 20.0031 22.6426 19.3903 23.2403C18.9076 23.717 18.812 23.7887 18.4416 23.9653C17.3151 24.5103 16.0776 24.552 14.9841 24.0807C14.426 23.8373 14.0433 23.5571 13.582 23.044C13.1283 22.5387 12.9363 22.2063 12.7421 21.6036C12.3799 20.4706 12.5089 19.3293 13.1208 18.271C13.4248 17.7513 14.2327 17.0064 14.7826 16.7434ZM11.807 21.9746C12.0948 22.8406 12.3171 23.196 13.017 23.9047C13.713 24.6095 14.0619 24.8325 14.928 25.1349C15.3649 25.2861 15.4483 25.3323 15.3568 25.3622C15.105 25.4368 14.0002 25.5669 13.4557 25.5901C12.8997 25.6171 11.4268 25.5584 11.3814 25.5124C11.3246 25.455 11.2884 23.9472 11.3341 23.3345C11.3799 22.7067 11.5511 21.501 11.601 21.4441C11.6125 21.4328 11.7062 21.6732 11.807 21.9746ZM18.3056 15.2845C19.3764 15.1199 20.5226 15.0775 21.5079 15.1865L21.8122 15.2189L21.8435 15.6949C21.8991 16.5404 21.8583 17.5947 21.747 18.3478C21.588 19.4128 21.5957 19.4052 21.3789 18.7643C21.0911 17.9059 20.8649 17.5467 20.1689 16.8418C19.4729 16.1293 19.1202 15.9025 18.2579 15.604C17.9578 15.4993 17.7186 15.4027 17.73 15.3913C17.7415 15.38 18.0007 15.3359 18.3056 15.2845Z" fill="#B4A481"/>
<path d="M14.3774 18.8157C14.5136 18.9536 14.608 19.0798 14.5927 19.0949C14.5736 19.1139 14.5308 19.2621 14.4993 19.4217C14.307 20.3381 15.1127 21.1616 15.9898 20.9386C16.1308 20.9053 16.459 20.7855 16.7186 20.6729C17.4018 20.3916 17.5849 20.3395 17.7443 20.4014C18.1545 20.5563 17.9334 21.2059 17.3797 21.4803C17.2805 21.5254 17.105 21.5776 16.9869 21.5959L16.7735 21.625L16.7376 21.8798C16.7253 22.0206 16.7125 22.2527 16.7154 22.3937L16.7176 22.6487L16.9766 22.6275C17.1175 22.6169 17.3806 22.5539 17.5675 22.4903L17.8919 22.3744L18.1302 22.6157L18.3685 22.857L18.7133 22.5165L19.0542 22.1799L18.8539 21.954L18.6573 21.732L18.7925 21.4168C19.0668 20.7752 18.9906 20.1922 18.5744 19.7708C18.041 19.2307 17.527 19.2313 16.2941 19.7603C15.626 20.0493 15.4891 20.0333 15.4951 19.6792C15.4929 19.4241 15.7955 19.1177 16.1694 18.9982L16.4364 18.9161L16.4115 18.6304C16.3973 18.4704 16.3797 18.2457 16.3691 18.12L16.3514 17.9029L16.1226 17.9548C15.9969 17.9807 15.7527 18.0705 15.5809 18.1493L15.2639 18.2958L15.0406 18.0927L14.8173 17.8895L14.4763 18.2262L14.1315 18.5666L14.3774 18.8157Z" fill="#B4A481"/>
</svg>
